<?xml version="1.0" encoding="utf-8"?>
<!-- Generator: Adobe Illustrator 17.0.0, SVG Export Plug-In . SVG Version: 6.00 Build 0)  -->
<!DOCTYPE svg PUBLIC "-//W3C//DTD SVG 1.1//EN" "http://www.w3.org/Graphics/SVG/1.1/DTD/svg11.dtd">
<svg version="1.1" id="Warstwa_1" xmlns="http://www.w3.org/2000/svg" xmlns:xlink="http://www.w3.org/1999/xlink" x="0px" y="0px"
	 width="212.042px" height="58.935px" viewBox="0 0 212.042 58.935" enable-background="new 0 0 212.042 58.935"
	 xml:space="preserve">
<g>
	
		<linearGradient id="SVGID_1_" gradientUnits="userSpaceOnUse" x1="333.3925" y1="-210.7141" x2="368.2405" y2="-210.7141" gradientTransform="matrix(1 0 0 -1 -293.16 -169.2033)">
		<stop  offset="0" style="stop-color:#EAA23E"/>
		<stop  offset="1" style="stop-color:#F1CA53"/>
	</linearGradient>
	<path fill="url(#SVGID_1_)" d="M57.656,24.087c-9.622,0-17.424,7.802-17.424,17.424s7.802,17.424,17.424,17.424
		S75.08,51.133,75.08,41.511S67.278,24.087,57.656,24.087z M66.391,40.059c-0.07-1.496-0.244-2.955-0.517-4.356h5.082
		c0.595,1.358,0.995,2.82,1.147,4.356H66.391z M72.102,42.963c-0.152,1.536-0.552,2.998-1.147,4.356h-5.082
		c0.273-1.401,0.449-2.86,0.517-4.356H72.102z M69.244,32.799h-4.109c-0.545-1.738-1.271-3.328-2.121-4.771
		C65.505,29.021,67.653,30.686,69.244,32.799z M62.06,32.799h-2.952v-5.335C60.329,28.931,61.324,30.74,62.06,32.799z
		 M59.108,50.223h2.952c-0.736,2.059-1.731,3.868-2.952,5.335V50.223z M56.204,27.464v5.335h-2.952
		C53.988,30.74,54.983,28.931,56.204,27.464z M56.204,35.703v4.356h-4.347c0.076-1.51,0.263-2.968,0.565-4.356H56.204z
		 M56.204,42.963v4.356h-3.782c-0.302-1.388-0.488-2.846-0.565-4.356H56.204z M56.204,50.223v5.335
		c-1.221-1.467-2.216-3.276-2.952-5.335H56.204z M59.108,47.319v-4.356h4.347c-0.076,1.51-0.263,2.968-0.565,4.356H59.108z
		 M59.108,40.059v-4.356h3.782c0.302,1.388,0.488,2.846,0.565,4.356H59.108z M52.298,28.028c-0.851,1.443-1.577,3.033-2.121,4.771
		h-4.109C47.659,30.686,49.806,29.021,52.298,28.028z M48.921,40.059H43.21c0.152-1.536,0.552-2.998,1.147-4.356h5.082
		C49.165,37.104,48.99,38.563,48.921,40.059z M49.439,47.319h-5.082c-0.595-1.358-0.995-2.82-1.147-4.356h5.712
		C48.99,44.458,49.165,45.918,49.439,47.319z M46.067,50.223h4.109c0.544,1.738,1.271,3.328,2.121,4.771
		C49.806,54.001,47.659,52.336,46.067,50.223z M63.014,54.994c0.851-1.443,1.577-3.033,2.121-4.771h4.109
		C67.653,52.336,65.505,54.001,63.014,54.994z"/>
	<g>
		<g enable-background="new    ">
			<path fill="#212121" d="M3.915,6.614c0.828,0,1.548,0.096,2.16,0.288c0.612,0.191,1.119,0.463,1.521,0.814
				C7.998,8.067,8.297,8.492,8.492,8.99s0.292,1.05,0.292,1.656c0,0.605-0.105,1.162-0.315,1.669s-0.519,0.943-0.927,1.31
				c-0.408,0.366-0.917,0.649-1.525,0.851s-1.31,0.302-2.102,0.302H1.917v4.761H0V6.614H3.915z M3.915,13.265
				c0.486,0,0.914-0.063,1.283-0.188s0.678-0.305,0.927-0.535c0.249-0.231,0.437-0.508,0.563-0.828
				c0.126-0.321,0.189-0.677,0.189-1.066c0-0.786-0.245-1.404-0.734-1.854c-0.489-0.45-1.231-0.675-2.228-0.675H1.917v5.147H3.915z"
				/>
			<path fill="#212121" d="M23.922,13.076c0,0.966-0.154,1.853-0.463,2.659c-0.309,0.808-0.746,1.503-1.31,2.088
				s-1.239,1.04-2.025,1.364c-0.786,0.323-1.659,0.485-2.619,0.485c-0.954,0-1.825-0.162-2.614-0.485
				c-0.789-0.324-1.464-0.779-2.025-1.364s-0.998-1.28-1.31-2.088c-0.312-0.807-0.468-1.693-0.468-2.659
				c0-0.96,0.156-1.845,0.468-2.655c0.312-0.81,0.749-1.507,1.31-2.093c0.561-0.585,1.236-1.04,2.025-1.367s1.661-0.491,2.614-0.491
				c0.96,0,1.833,0.164,2.619,0.491s1.461,0.782,2.025,1.367c0.564,0.586,1,1.283,1.31,2.093
				C23.768,11.231,23.922,12.116,23.922,13.076z M21.96,13.076c0-0.768-0.105-1.458-0.315-2.07c-0.21-0.611-0.508-1.131-0.896-1.557
				c-0.387-0.426-0.855-0.753-1.404-0.981c-0.549-0.228-1.163-0.342-1.841-0.342c-0.678,0-1.292,0.114-1.84,0.342
				c-0.549,0.229-1.019,0.556-1.408,0.981c-0.39,0.426-0.69,0.945-0.9,1.557c-0.21,0.612-0.315,1.303-0.315,2.07
				c0,0.773,0.105,1.466,0.315,2.074c0.21,0.609,0.51,1.127,0.9,1.553c0.39,0.426,0.859,0.751,1.408,0.977
				c0.549,0.225,1.163,0.337,1.84,0.337c0.678,0,1.292-0.112,1.841-0.337c0.549-0.226,1.017-0.551,1.404-0.977
				c0.387-0.426,0.686-0.943,0.896-1.553C21.855,14.542,21.96,13.85,21.96,13.076z"/>
			<path fill="#212121" d="M29.232,12.203h0.63c0.228,0,0.412-0.028,0.553-0.086c0.141-0.057,0.269-0.154,0.383-0.292l4.113-4.779
				c0.132-0.162,0.267-0.274,0.405-0.337c0.138-0.063,0.309-0.095,0.513-0.095h1.638l-4.788,5.508
				c-0.12,0.156-0.239,0.282-0.355,0.378c-0.117,0.096-0.239,0.177-0.365,0.243c0.33,0.114,0.618,0.345,0.864,0.693l4.977,6.102
				h-1.665c-0.12,0-0.224-0.009-0.311-0.027c-0.087-0.018-0.162-0.043-0.225-0.076s-0.12-0.073-0.171-0.121
				c-0.051-0.049-0.098-0.105-0.14-0.172l-4.257-5.039c-0.06-0.078-0.12-0.145-0.18-0.198c-0.06-0.055-0.129-0.098-0.207-0.131
				s-0.168-0.057-0.27-0.072c-0.102-0.015-0.222-0.022-0.36-0.022h-0.783v5.859h-1.917V6.614h1.917V12.203z"/>
			<path fill="#212121" d="M50.994,19.538h-1.476c-0.168,0-0.306-0.042-0.414-0.126s-0.186-0.192-0.234-0.324l-1.143-2.997H42.03
				l-1.143,2.997c-0.042,0.114-0.12,0.218-0.234,0.311c-0.114,0.093-0.252,0.14-0.414,0.14h-1.476l5.148-12.924h1.935L50.994,19.538
				z M47.205,14.723L45.288,9.71c-0.138-0.342-0.276-0.773-0.414-1.296c-0.066,0.258-0.133,0.498-0.203,0.72
				c-0.069,0.223-0.136,0.42-0.202,0.595l-1.908,4.994H47.205z"/>
			<path fill="#212121" d="M62.297,7.325c0,0.216-0.066,0.423-0.198,0.621l-7.137,10.035h7.209v1.557h-9.72v-0.756
				c0-0.103,0.016-0.198,0.049-0.288c0.033-0.09,0.077-0.177,0.13-0.261l7.155-10.063h-6.975V6.614h9.486V7.325z M58.743,4.337
				c0,0.156-0.032,0.303-0.095,0.441c-0.063,0.138-0.148,0.26-0.256,0.364c-0.108,0.105-0.233,0.189-0.374,0.252
				c-0.141,0.063-0.292,0.095-0.455,0.095c-0.156,0-0.303-0.031-0.441-0.095c-0.138-0.063-0.258-0.146-0.36-0.252
				c-0.103-0.104-0.185-0.227-0.248-0.364C56.452,4.64,56.42,4.493,56.42,4.337c0-0.162,0.032-0.313,0.095-0.454
				c0.063-0.142,0.145-0.266,0.248-0.374c0.102-0.107,0.222-0.193,0.36-0.256c0.138-0.063,0.285-0.095,0.441-0.095
				c0.162,0,0.313,0.031,0.455,0.095c0.141,0.063,0.266,0.148,0.374,0.256c0.108,0.108,0.193,0.232,0.256,0.374
				C58.711,4.023,58.743,4.175,58.743,4.337z"/>
			<path fill="#212121" d="M77.66,8.72c-0.06,0.103-0.123,0.178-0.189,0.226s-0.15,0.071-0.252,0.071
				c-0.108,0-0.231-0.049-0.369-0.148c-0.138-0.099-0.311-0.21-0.518-0.333c-0.207-0.122-0.455-0.233-0.743-0.333
				c-0.288-0.099-0.633-0.148-1.035-0.148c-0.378,0-0.709,0.05-0.994,0.148c-0.285,0.1-0.524,0.234-0.716,0.405
				s-0.337,0.372-0.437,0.604c-0.099,0.23-0.148,0.481-0.148,0.751c0,0.349,0.088,0.636,0.266,0.864
				c0.177,0.228,0.41,0.423,0.697,0.585c0.288,0.162,0.615,0.303,0.981,0.423c0.366,0.12,0.741,0.245,1.125,0.374
				c0.384,0.129,0.759,0.277,1.125,0.445c0.366,0.168,0.693,0.379,0.981,0.634c0.288,0.256,0.521,0.567,0.697,0.937
				s0.266,0.82,0.266,1.354c0,0.57-0.098,1.104-0.292,1.602c-0.195,0.498-0.479,0.934-0.851,1.306s-0.83,0.664-1.373,0.877
				s-1.16,0.319-1.85,0.319c-0.414,0-0.816-0.04-1.206-0.121c-0.39-0.081-0.759-0.195-1.107-0.342
				c-0.348-0.147-0.673-0.324-0.977-0.531c-0.303-0.207-0.574-0.439-0.814-0.697l0.549-0.918c0.054-0.072,0.118-0.132,0.193-0.181
				c0.075-0.048,0.161-0.071,0.256-0.071c0.126,0,0.271,0.065,0.437,0.198c0.165,0.132,0.369,0.277,0.612,0.436
				c0.243,0.159,0.534,0.305,0.873,0.437c0.339,0.133,0.751,0.198,1.237,0.198c0.396,0,0.75-0.052,1.062-0.157
				c0.312-0.104,0.574-0.255,0.788-0.45c0.213-0.194,0.376-0.431,0.49-0.706c0.114-0.276,0.171-0.582,0.171-0.918
				c0-0.378-0.087-0.688-0.261-0.928c-0.174-0.239-0.405-0.44-0.693-0.603c-0.288-0.162-0.615-0.3-0.981-0.414
				c-0.366-0.114-0.741-0.232-1.125-0.355c-0.384-0.123-0.759-0.266-1.125-0.428c-0.366-0.162-0.693-0.373-0.981-0.635
				c-0.288-0.261-0.519-0.588-0.693-0.98s-0.261-0.878-0.261-1.453c0-0.462,0.09-0.909,0.27-1.342
				c0.18-0.432,0.442-0.814,0.787-1.147c0.345-0.333,0.77-0.6,1.274-0.801c0.504-0.201,1.08-0.302,1.728-0.302
				c0.726,0,1.393,0.116,2.002,0.347c0.609,0.231,1.138,0.563,1.588,0.995L77.66,8.72z"/>
			<path fill="#212121" d="M83.681,19.538h-1.926V6.614h1.926V19.538z"/>
			<path fill="#212121" d="M96.02,22.157c-0.186,0.138-0.42,0.249-0.702,0.333c-0.282,0.084-0.579,0.126-0.891,0.126
				c-0.546,0-0.971-0.119-1.273-0.355c-0.303-0.237-0.455-0.554-0.455-0.949c0-0.343,0.114-0.665,0.342-0.968s0.528-0.571,0.9-0.806
				h-6.084V6.614h8.01v1.557h-6.084v4.095h4.896v1.504h-4.896v4.212h6.093l-0.009,1.557h-0.819c-0.12,0.066-0.242,0.144-0.365,0.234
				c-0.123,0.09-0.234,0.191-0.333,0.306s-0.18,0.238-0.243,0.373c-0.063,0.136-0.094,0.278-0.094,0.428
				c0,0.21,0.07,0.378,0.211,0.504s0.329,0.189,0.563,0.189c0.132,0,0.242-0.011,0.329-0.031c0.087-0.021,0.159-0.042,0.216-0.063
				s0.104-0.042,0.14-0.063c0.036-0.021,0.069-0.032,0.099-0.032c0.09,0,0.15,0.039,0.18,0.117L96.02,22.157z"/>
		</g>
	</g>
	<g enable-background="new    ">
		<path fill="#212121" d="M78.816,54.301c-0.621-1.6-0.93-4.16-0.93-7.681c0-5.199,0.74-10.14,2.22-14.819
			c0.36-1.16,0.95-2.011,1.77-2.551c0.819-0.54,1.969-0.81,3.45-0.81c0.8,0,1.359,0.101,1.68,0.3c0.319,0.201,0.48,0.58,0.48,1.141
			c0,0.64-0.3,2.08-0.9,4.319c-0.4,1.601-0.72,3-0.96,4.2c-0.24,1.2-0.441,2.681-0.6,4.44c1.32-3.44,2.799-6.24,4.44-8.4
			c1.64-2.16,3.25-3.699,4.83-4.62c1.58-0.92,3.03-1.38,4.35-1.38c2.6,0,3.9,1.3,3.9,3.9c0,1.56-0.441,4.38-1.32,8.46
			c-0.76,3.479-1.14,5.78-1.14,6.899c0,1.601,0.579,2.4,1.74,2.4c0.8,0,1.75-0.489,2.85-1.47c1.099-0.98,2.57-2.57,4.41-4.771
			c0.48-0.56,1.021-0.84,1.62-0.84c0.52,0,0.93,0.24,1.229,0.72c0.301,0.48,0.45,1.141,0.45,1.98c0,1.6-0.381,2.84-1.14,3.72
			c-1.721,2.12-3.57,3.86-5.55,5.22c-1.98,1.36-4.23,2.04-6.75,2.04c-2.04,0-3.581-0.59-4.62-1.77c-1.041-1.18-1.56-2.89-1.56-5.13
			c0-1.12,0.279-3.12,0.84-6c0.519-2.521,0.78-4.261,0.78-5.221c0-0.639-0.22-0.96-0.66-0.96c-0.52,0-1.25,0.671-2.19,2.011
			c-0.94,1.34-1.9,3.11-2.88,5.31c-0.98,2.2-1.77,4.521-2.37,6.96c-0.44,1.881-0.951,3.15-1.53,3.81
			c-0.581,0.66-1.491,0.99-2.73,0.99C80.505,56.7,79.436,55.9,78.816,54.301z"/>
		<path fill="#212121" d="M134.495,43.74c0.3,0.48,0.45,1.141,0.45,1.98c0,1.6-0.381,2.84-1.14,3.72
			c-1.721,2.12-3.591,3.86-5.61,5.22c-2.021,1.36-4.311,2.04-6.87,2.04c-3.521,0-6.13-1.6-7.83-4.8c-1.7-3.199-2.55-7.34-2.55-12.42
			c0-4.88,0.63-10.44,1.89-16.68c1.261-6.24,3.12-11.6,5.58-16.08c2.46-4.479,5.39-6.721,8.79-6.721c1.92,0,3.43,0.891,4.53,2.67
			c1.1,1.781,1.65,4.331,1.65,7.65c0,4.761-1.32,10.28-3.961,16.561c-2.64,6.28-6.22,12.5-10.739,18.659
			c0.279,1.641,0.739,2.811,1.38,3.511c0.64,0.7,1.479,1.05,2.52,1.05c1.64,0,3.08-0.47,4.32-1.41c1.239-0.939,2.82-2.55,4.74-4.83
			c0.479-0.56,1.02-0.84,1.62-0.84C133.784,43.021,134.195,43.261,134.495,43.74z M122.765,10.92
			c-1.161,3.321-2.181,7.44-3.061,12.36s-1.36,9.641-1.439,14.16c2.839-4.68,5.1-9.369,6.779-14.07
			c1.681-4.699,2.521-8.989,2.521-12.87c0-3.039-0.561-4.56-1.68-4.56C124.964,5.94,123.924,7.601,122.765,10.92z"/>
		<path fill="#212121" d="M134.793,53.94c-1.18-1.84-1.77-4.279-1.77-7.32c0-1.8,0.229-4.109,0.689-6.93s1.051-5.45,1.771-7.89
			c0.36-1.28,0.84-2.16,1.44-2.641c0.6-0.479,1.56-0.72,2.88-0.72c2.04,0,3.06,0.681,3.06,2.04c0,1-0.381,3.32-1.14,6.96
			c-0.96,4.4-1.44,7.38-1.44,8.94c0,1.199,0.159,2.12,0.48,2.76c0.319,0.64,0.859,0.96,1.62,0.96c0.72,0,1.619-0.5,2.699-1.5
			s2.521-2.58,4.32-4.74c0.48-0.56,1.021-0.84,1.62-0.84c0.52,0,0.93,0.24,1.229,0.72c0.301,0.48,0.45,1.141,0.45,1.98
			c0,1.6-0.381,2.84-1.14,3.72c-3.96,4.84-7.66,7.26-11.101,7.26C137.863,56.7,135.973,55.78,134.793,53.94z M137.164,23.311
			c-0.84-0.78-1.26-1.869-1.26-3.271c0-1.399,0.55-2.569,1.65-3.51c1.1-0.939,2.469-1.41,4.109-1.41c1.479,0,2.68,0.36,3.601,1.08
			c0.919,0.72,1.38,1.74,1.38,3.061c0,1.6-0.521,2.87-1.561,3.81c-1.04,0.94-2.42,1.41-4.14,1.41
			C139.264,24.48,138.003,24.091,137.164,23.311z"/>
		<path fill="#212121" d="M151.893,54.301c-0.62-1.6-0.93-4.16-0.93-7.681c0-5.199,0.739-10.14,2.22-14.819
			c0.36-1.16,0.95-2.011,1.771-2.551c0.819-0.54,1.969-0.81,3.449-0.81c0.8,0,1.359,0.101,1.681,0.3
			c0.319,0.201,0.479,0.58,0.479,1.141c0,0.64-0.3,2.08-0.899,4.319c-0.4,1.601-0.721,3-0.96,4.2c-0.24,1.2-0.441,2.681-0.601,4.44
			c1.32-3.44,2.8-6.24,4.44-8.4c1.64-2.16,3.249-3.699,4.83-4.62c1.579-0.92,3.029-1.38,4.35-1.38c2.6,0,3.9,1.3,3.9,3.9
			c0,1.56-0.441,4.38-1.32,8.46c-0.761,3.479-1.14,5.78-1.14,6.899c0,1.601,0.579,2.4,1.739,2.4c0.8,0,1.75-0.489,2.851-1.47
			c1.1-0.98,2.569-2.57,4.41-4.771c0.479-0.56,1.02-0.84,1.619-0.84c0.52,0,0.931,0.24,1.23,0.72c0.3,0.48,0.45,1.141,0.45,1.98
			c0,1.6-0.381,2.84-1.141,3.72c-1.72,2.12-3.569,3.86-5.55,5.22c-1.979,1.36-4.229,2.04-6.75,2.04c-2.04,0-3.58-0.59-4.62-1.77
			s-1.56-2.89-1.56-5.13c0-1.12,0.279-3.12,0.84-6c0.52-2.521,0.78-4.261,0.78-5.221c0-0.639-0.221-0.96-0.66-0.96
			c-0.521,0-1.251,0.671-2.19,2.011c-0.94,1.34-1.9,3.11-2.88,5.31c-0.98,2.2-1.77,4.521-2.37,6.96
			c-0.44,1.881-0.95,3.15-1.529,3.81c-0.581,0.66-1.491,0.99-2.73,0.99C153.583,56.7,152.513,55.9,151.893,54.301z"/>
		<path fill="#212121" d="M211.592,43.74c0.3,0.48,0.45,1.141,0.45,1.98c0,1.6-0.381,2.84-1.141,3.72
			c-1.48,1.8-3.569,3.46-6.27,4.979c-2.7,1.521-5.59,2.28-8.67,2.28c-4.2,0-7.461-1.14-9.78-3.42c-2.32-2.28-3.479-5.399-3.479-9.36
			c0-2.76,0.579-5.329,1.74-7.71c1.159-2.379,2.769-4.269,4.829-5.67c2.061-1.399,4.39-2.1,6.99-2.1c2.319,0,4.18,0.69,5.58,2.07
			c1.399,1.38,2.1,3.25,2.1,5.609c0,2.761-0.99,5.13-2.97,7.11c-1.979,1.979-5.33,3.55-10.05,4.71c0.999,1.84,2.899,2.76,5.7,2.76
			c1.8,0,3.85-0.63,6.149-1.89s4.29-2.91,5.97-4.95c0.48-0.56,1.021-0.84,1.62-0.84C210.881,43.021,211.292,43.261,211.592,43.74z
			 M191.493,36.9c-1.021,1.721-1.53,3.801-1.53,6.24v0.12c2.359-0.56,4.22-1.4,5.58-2.521c1.359-1.119,2.04-2.42,2.04-3.899
			c0-0.76-0.21-1.37-0.63-1.83s-0.99-0.69-1.71-0.69C193.762,34.32,192.512,35.181,191.493,36.9z"/>
	</g>
</g>
</svg>
