<?xml version="1.0" encoding="utf-8"?>
<!-- Generator: Adobe Illustrator 17.0.0, SVG Export Plug-In . SVG Version: 6.00 Build 0)  -->
<!DOCTYPE svg PUBLIC "-//W3C//DTD SVG 1.1//EN" "http://www.w3.org/Graphics/SVG/1.1/DTD/svg11.dtd">
<svg version="1.1" xmlns="http://www.w3.org/2000/svg" xmlns:xlink="http://www.w3.org/1999/xlink" x="0px" y="0px"
	 width="501.494px" height="511.208px" viewBox="0 0 501.494 511.208" enable-background="new 0 0 501.494 511.208"
	 xml:space="preserve">
<g id="Siatka" display="none">
</g>
<g id="Warstwa_1" display="none">
</g>
<g id="Pulpit">
</g>
<g id="Prowadnice">
</g>
<g id="Page_1">
	<g id="Warstwa_1_1_">
		<path fill-rule="evenodd" clip-rule="evenodd" fill="#2C2375" d="M473.724,0c15.334,0,27.77,12.435,27.77,27.77v455.668
			c0,15.334-12.435,27.77-27.77,27.77H27.77c-15.334,0-27.77-12.435-27.77-27.77V27.77C0,12.435,12.435,0,27.77,0H473.724L473.724,0
			z"/>
		<path fill-rule="evenodd" clip-rule="evenodd" fill="#F58220" d="M41.349,73.54c241.845,0,437.974,44.618,437.974,99.638
			s-196.129,99.638-437.974,99.638c-13.946,0-27.736-0.152-41.349-0.442V214.61c229.977-1.405,413.475-28.361,413.475-61.406
			c0-33.046-183.498-60.004-413.475-61.409V73.977C13.613,73.688,27.403,73.54,41.349,73.54L41.349,73.54z"/>
		<path fill-rule="evenodd" clip-rule="evenodd" fill="#F58220" d="M21.618,100.556c126.436,0,228.971,23.326,228.971,52.09
			s-102.536,52.09-228.971,52.09c-7.291,0-14.501-0.08-21.617-0.231v-30.198c120.231-0.735,216.163-14.827,216.163-32.103
			c0-17.276-95.932-31.37-216.163-32.104v-9.315C7.117,100.633,14.327,100.556,21.618,100.556L21.618,100.556z"/>
		<path fill-rule="evenodd" clip-rule="evenodd" fill="#FFFFFF" d="M443.151,314.748c10.594,0,19.184,7.637,19.184,17.053v66.827
			c0,9.416-8.591,17.053-19.184,17.053h-57.553c-10.594,0-19.184-7.637-19.184-17.053v-66.827c0-9.416,8.591-17.053,19.184-17.053
			H443.151L443.151,314.748z M399.962,343.691h28.825v43.048h-28.825V343.691L399.962,343.691z"/>
		<path fill-rule="evenodd" clip-rule="evenodd" fill="#FFFFFF" d="M251.616,331.801v42.855v23.972
			c0,9.416-8.591,17.053-19.184,17.053h-57.553c-10.594,0-19.184-7.637-19.184-17.053v-25.736v-41.091v-17.053h19.184h14.365v28.943
			v29.202v1.764v12.082h28.825v-12.082v-30.966v-28.943h14.364h19.184V331.801L251.616,331.801z"/>
		<path fill-rule="evenodd" clip-rule="evenodd" fill="#FFFFFF" d="M144.668,398.628v-42.855v-23.972
			c0-9.416-8.591-17.053-19.184-17.053H67.93c-10.594,0-19.184,7.637-19.184,17.053v25.736v41.091v17.053H67.93h14.365v-28.943
			v-15.32h28.825v15.32v28.943h14.364h19.184V398.628L144.668,398.628z M82.295,354.131v-10.44h28.825v10.44H82.295L82.295,354.131z
			"/>
		<polygon fill-rule="evenodd" clip-rule="evenodd" fill="#FFFFFF" points="266.715,314.748 355.563,314.748 355.563,338.265 
			328.426,338.265 328.426,412.681 293.85,412.681 293.85,338.265 266.715,338.265 266.715,314.748 		"/>
		<path fill="#FFFFFF" d="M79.762,443.278H57.172v7.486h21.51c3.378,0,5.662,0.585,6.843,1.745c1.192,1.171,1.783,3.331,1.783,6.506
			v4.783c0,3.164-0.591,5.324-1.783,6.495c-1.181,1.16-3.466,1.745-6.843,1.745H57.372c-3.376,0-5.661-0.585-6.843-1.745
			c-1.192-1.171-1.783-3.331-1.783-6.495v-0.956l7.088-1.486v4.12H80.22v-7.947H58.709c-3.354,0-5.617-0.585-6.798-1.745
			c-1.17-1.17-1.761-3.331-1.761-6.506v-3.849c0-3.175,0.591-5.335,1.761-6.506c1.181-1.16,3.444-1.745,6.798-1.745h19.583
			c3.242,0,5.483,0.563,6.709,1.677c1.237,1.125,1.85,3.118,1.85,5.977v0.72l-7.088,1.688V443.278L79.762,443.278z M129.848,472.037
			v-34.86h35.341v5.932h-27.305v7.79h15.937v5.932h-15.937v8.644h27.628v6.563H129.848L129.848,472.037z M232.182,443.211h-18.066
			v9.702h18.066c1.393,0,2.34-0.202,2.853-0.608c0.513-0.405,0.769-1.125,0.769-2.16v-4.199c0-1.013-0.256-1.722-0.769-2.127
			C234.523,443.413,233.576,443.211,232.182,443.211L232.182,443.211z M206.214,472.037v-34.86h29.524
			c2.741,0,4.725,0.529,5.962,1.598c1.226,1.07,1.839,2.791,1.839,5.155v8.194c0,2.353-0.613,4.063-1.839,5.133
			c-1.237,1.081-3.221,1.621-5.962,1.621h-4.503l15.926,13.158h-11.524l-13.909-13.158h-7.612v13.158H206.214L206.214,472.037z
			 M292.8,472.037l-13.285-34.86h8.292l8.749,23.379l9.184-23.379h5.617l9.329,23.379l8.359-23.379h7.189l-13.319,34.86h-5.428
			l-9.495-24.111l-9.64,24.111H292.8L292.8,472.037z M373.523,472.037v-34.86h8.036v34.86H373.523L373.523,472.037z
			 M454.983,443.278h-22.591v7.486h21.509c3.378,0,5.662,0.585,6.843,1.745c1.192,1.171,1.783,3.331,1.783,6.506v4.783
			c0,3.164-0.591,5.324-1.783,6.495c-1.181,1.16-3.466,1.745-6.843,1.745h-21.309c-3.376,0-5.661-0.585-6.843-1.745
			c-1.192-1.171-1.783-3.331-1.783-6.495v-0.956l7.088-1.486v4.12h24.386v-7.947H433.93c-3.354,0-5.617-0.585-6.798-1.745
			c-1.17-1.17-1.761-3.331-1.761-6.506v-3.849c0-3.175,0.591-5.335,1.761-6.506c1.181-1.16,3.444-1.745,6.798-1.745h19.583
			c3.242,0,5.483,0.563,6.709,1.677c1.237,1.125,1.85,3.118,1.85,5.977v0.72l-7.088,1.688V443.278L454.983,443.278z"/>
	</g>
</g>
</svg>
