<?xml version="1.0" encoding="utf-8"?>
<!-- Generator: Adobe Illustrator 17.0.0, SVG Export Plug-In . SVG Version: 6.00 Build 0)  -->
<!DOCTYPE svg PUBLIC "-//W3C//DTD SVG 1.1//EN" "http://www.w3.org/Graphics/SVG/1.1/DTD/svg11.dtd">
<svg version="1.1" id="Warstwa_1" xmlns="http://www.w3.org/2000/svg" xmlns:xlink="http://www.w3.org/1999/xlink" x="0px" y="0px"
	 width="30px" height="30px" viewBox="-3 -3 30 30" enable-background="new -3 -3 30 30" xml:space="preserve">
<path fill="#FFFFFF" d="M10.647,14.416h0.883v4.744h-0.883v-0.524c-0.163,0.192-0.332,0.34-0.506,0.441
	c-0.476,0.273-1.128,0.266-1.128-0.696v-3.965h0.881v3.636c0,0.191,0.046,0.32,0.235,0.32c0.172,0,0.411-0.22,0.519-0.355v-3.601
	L10.647,14.416z M11.45,9.19c0.25,0,0.389-0.2,0.389-0.471V6.401c0-0.279-0.122-0.475-0.405-0.475c-0.26,0-0.386,0.201-0.386,0.475
	v2.318C11.046,8.981,11.194,9.19,11.45,9.19z M9.024,12.729H5.975v0.934h1.029v5.497h0.994v-5.497h1.026V12.729z M14.925,15.545
	v2.631c0,0.587-0.22,1.042-0.806,1.042c-0.324,0-0.592-0.118-0.839-0.425v0.365h-0.89v-6.431h0.89v2.07
	c0.2-0.243,0.469-0.443,0.785-0.443C14.711,14.356,14.925,14.901,14.925,15.545z M14.016,15.599c0-0.16-0.03-0.281-0.094-0.365
	c-0.108-0.141-0.305-0.156-0.459-0.077l-0.182,0.145v2.956l0.209,0.168c0.144,0.073,0.354,0.078,0.451-0.049
	c0.05-0.068,0.076-0.176,0.076-0.327v-2.45L14.016,15.599z M27,12c0,8.284-6.716,15-15,15S-3,20.284-3,12S3.716-3,12-3
	S27,3.716,27,12z M13.567,9.186c0,0.493,0.15,0.89,0.649,0.89c0.28,0,0.668-0.146,1.069-0.622v0.55h0.926V5.021h-0.926v3.781
	c-0.113,0.141-0.364,0.374-0.545,0.374c-0.199,0-0.246-0.135-0.246-0.336V5.021h-0.926C13.567,5.021,13.567,9.186,13.567,9.186z
	 M10.094,6.319v2.442c0,0.879,0.459,1.335,1.356,1.335c0.746,0,1.331-0.499,1.331-1.335V6.319c0-0.78-0.581-1.339-1.331-1.339
	C10.635,4.98,10.094,5.52,10.094,6.319z M6.642,3.25l1.241,4.014v2.739h1.044V7.264l1.214-4.014h-1.06l-0.669,2.7l-0.719-2.7
	C7.694,3.25,6.642,3.25,6.642,3.25z M19.291,16.01c-0.016-3.256-0.255-4.503-2.31-4.642c-1.897-0.13-8.069-0.129-9.964,0
	c-2.053,0.14-2.294,1.38-2.31,4.642c0.016,3.257,0.255,4.502,2.31,4.644c1.895,0.129,8.066,0.129,9.964,0
	C19.035,20.512,19.275,19.274,19.291,16.01z M18.185,15.691v1.207h-1.688v0.895c0,0.356,0.03,0.664,0.385,0.664
	c0.372,0,0.394-0.25,0.394-0.664v-0.33h0.909v0.356c0,0.914-0.391,1.468-1.321,1.468c-0.845,0-1.274-0.614-1.274-1.468v-2.13
	c0-0.824,0.544-1.395,1.339-1.395C17.776,14.296,18.185,14.834,18.185,15.691z M17.277,15.683c0-0.32-0.068-0.556-0.386-0.556
	c-0.326,0-0.392,0.23-0.392,0.556v0.481h0.779V15.683z"/>
</svg>
